<svg width="193" height="34" viewBox="0 0 193 34" fill="none" xmlns="http://www.w3.org/2000/svg">
<path d="M19.7962 24.7453L15.4542 29.4249C14.017 30.9553 12.0763 31.8107 10.056 31.8042C8.03567 31.7977 6.0998 30.9298 4.67119 29.3901C3.24257 27.8504 2.43728 25.7639 2.4312 23.5864C2.42509 21.4089 3.21869 19.3172 4.63864 17.7683L11.124 10.7785C11.1206 10.6553 11.1183 10.532 11.1183 10.4083C11.1177 9.36731 11.2417 8.33061 11.4872 7.32385L3.21839 16.2359C1.41791 18.1903 0.409515 20.8342 0.414078 23.5883C0.418641 26.3424 1.4358 28.9824 3.24273 30.9298C5.04967 32.8773 7.4991 33.9735 10.0545 33.9783C12.6099 33.9833 15.0629 32.8964 16.8762 30.9558L21.2181 26.2763L19.7962 24.7453Z" fill="white"/>
<path d="M34.5195 34C33.2513 34.0023 31.9952 33.7345 30.8234 33.2121C29.6515 32.6898 28.5869 31.9229 27.6908 30.9557L15.4543 17.7674C13.6473 15.8145 12.6334 13.1684 12.6353 10.4104C12.6371 7.6524 13.6544 5.0079 15.464 3.05771C17.2735 1.10754 19.7271 0.0111267 22.2862 0.00927968C24.8451 0.00743263 27.3002 1.1003 29.1121 3.04786L41.3486 16.2361C42.6998 17.6911 43.6202 19.5455 43.9932 21.5646C44.3664 23.5836 44.1751 25.6766 43.444 27.5785C42.7128 29.4805 41.4746 31.1057 39.8859 32.2489C38.2973 33.392 36.4297 34.0013 34.5195 34ZM29.1121 29.4244C30.5499 30.9517 32.4895 31.8043 34.5083 31.7965C36.5269 31.7886 38.4609 30.9207 39.8884 29.3822C41.3157 27.8438 42.121 25.7594 42.1283 23.5838C42.1355 21.408 41.3445 19.3173 39.9274 17.7678L27.6909 4.57955C26.9826 3.80502 26.1392 3.18921 25.209 2.76759C24.2791 2.34598 23.2808 2.12688 22.2718 2.12294C21.2627 2.11899 20.263 2.33027 19.3302 2.74461C18.3974 3.15894 17.5497 3.76815 16.8362 4.53711C16.1228 5.30607 15.5575 6.21959 15.1731 7.22504C14.7887 8.23049 14.5926 9.30799 14.5963 10.3954C14.5999 11.4829 14.8032 12.5589 15.1944 13.5613C15.5856 14.5637 16.157 15.4728 16.8756 16.2361L29.1121 29.4244Z" fill="#6883FF"/>
<path d="M39.9278 3.0486L35.5859 7.72818L37.0071 9.25986L41.3489 4.58028C42.7868 3.05302 44.7264 2.20037 46.7452 2.20825C48.7638 2.21615 50.6977 3.08394 52.1253 4.62243C53.5526 6.1609 54.3578 8.24525 54.3651 10.421C54.3724 12.5967 53.5814 14.6873 52.1643 16.2369L45.6739 23.2321C45.7068 24.3983 45.5829 25.5635 45.3065 26.6915L53.5854 17.7686C55.3966 15.8166 56.4141 13.1691 56.4141 10.4086C56.4141 7.64805 55.3966 5.0006 53.5854 3.0486C51.7743 1.09662 49.3179 0 46.7565 0C44.1953 0 41.739 1.09662 39.9278 3.0486Z" fill="#F3F3F3"/>
<path d="M70.56 17.96H73.6L81.6 29H78.24L70.56 17.96ZM66.56 6.6H69.28V29H66.56V6.6ZM68.064 9V6.6H72.64C74.0907 6.6 75.3813 6.87733 76.512 7.432C77.664 7.96533 78.5707 8.73333 79.232 9.736C79.9147 10.7387 80.256 11.9333 80.256 13.32C80.256 14.6853 79.9147 15.88 79.232 16.904C78.5707 17.9067 77.664 18.6853 76.512 19.24C75.3813 19.7733 74.0907 20.04 72.64 20.04H68.064V17.64H72.64C73.6 17.64 74.4427 17.4693 75.168 17.128C75.9147 16.7867 76.4907 16.296 76.896 15.656C77.3227 15.016 77.536 14.2373 77.536 13.32C77.536 12.4027 77.3227 11.624 76.896 10.984C76.4907 10.344 75.9147 9.85333 75.168 9.512C74.4427 9.17067 73.6 9 72.64 9H68.064ZM90.0023 29.32C88.6369 29.32 87.4209 29 86.3543 28.36C85.3089 27.6987 84.4876 26.792 83.8903 25.64C83.3143 24.488 83.0263 23.1547 83.0263 21.64C83.0263 20.104 83.3249 18.76 83.9223 17.608C84.5409 16.456 85.3943 15.56 86.4823 14.92C87.5916 14.28 88.8716 13.96 90.3223 13.96C91.7729 13.96 93.0103 14.2693 94.0343 14.888C95.0796 15.4853 95.8796 16.3493 96.4343 17.48C96.9889 18.6107 97.2663 19.9547 97.2663 21.512C97.2663 21.6613 97.2556 21.8213 97.2343 21.992C97.2343 22.1413 97.2343 22.2373 97.2343 22.28H84.6583V20.104H95.2183L94.1943 21.576C94.2583 21.4693 94.3223 21.3093 94.3863 21.096C94.4503 20.8613 94.4823 20.6693 94.4823 20.52C94.4823 19.6453 94.3009 18.888 93.9383 18.248C93.5969 17.608 93.1169 17.1067 92.4983 16.744C91.8796 16.3813 91.1543 16.2 90.3223 16.2C89.3409 16.2 88.4983 16.4133 87.7943 16.84C87.1116 17.2453 86.5783 17.8427 86.1943 18.632C85.8316 19.4 85.6396 20.3493 85.6183 21.48C85.6183 22.632 85.7996 23.6133 86.1623 24.424C86.5249 25.2347 87.0583 25.8533 87.7623 26.28C88.4663 26.7067 89.3196 26.92 90.3223 26.92C91.3249 26.92 92.2103 26.7067 92.9783 26.28C93.7463 25.832 94.3969 25.16 94.9303 24.264L97.0103 25.576C96.2423 26.8133 95.2716 27.752 94.0983 28.392C92.9463 29.0107 91.5809 29.32 90.0023 29.32ZM108.146 14.28H111.026L106.002 21.416L111.346 29H108.466L104.626 23.432L100.786 29H97.9062L103.25 21.416L98.2263 14.28H101.106L104.626 19.4L108.146 14.28ZM117.008 13.864L115.344 29H112.624L115.344 5.48L124.304 21.704L133.264 5.48L135.984 29H133.264L131.6 13.864L124.304 26.92L117.008 13.864ZM140.802 24.456C140.802 25.0107 140.93 25.4907 141.186 25.896C141.463 26.3013 141.837 26.6107 142.306 26.824C142.797 27.016 143.351 27.112 143.97 27.112C144.759 27.112 145.463 26.952 146.082 26.632C146.722 26.312 147.223 25.864 147.586 25.288C147.97 24.6907 148.162 24.008 148.162 23.24L148.674 25.16C148.674 26.0987 148.386 26.8773 147.81 27.496C147.255 28.1147 146.562 28.5733 145.73 28.872C144.919 29.1707 144.109 29.32 143.298 29.32C142.402 29.32 141.559 29.1387 140.77 28.776C140.002 28.392 139.383 27.848 138.914 27.144C138.445 26.44 138.21 25.5867 138.21 24.584C138.21 23.1547 138.711 22.0133 139.714 21.16C140.738 20.2853 142.157 19.848 143.97 19.848C145.037 19.848 145.922 19.976 146.626 20.232C147.351 20.4667 147.927 20.744 148.354 21.064C148.781 21.3627 149.069 21.608 149.218 21.8V23.304C148.471 22.792 147.703 22.4293 146.914 22.216C146.125 21.9813 145.282 21.864 144.386 21.864C143.554 21.864 142.871 21.9707 142.338 22.184C141.826 22.3973 141.442 22.696 141.186 23.08C140.93 23.464 140.802 23.9227 140.802 24.456ZM140.418 17.672L139.17 15.784C139.725 15.3787 140.482 14.9733 141.442 14.568C142.423 14.1627 143.597 13.96 144.962 13.96C146.114 13.96 147.117 14.1413 147.97 14.504C148.845 14.8453 149.517 15.3467 149.986 16.008C150.477 16.6693 150.722 17.48 150.722 18.44V29H148.162V18.792C148.162 18.28 148.077 17.864 147.906 17.544C147.735 17.2027 147.49 16.936 147.17 16.744C146.871 16.552 146.519 16.4133 146.114 16.328C145.709 16.2427 145.282 16.2 144.834 16.2C144.109 16.2 143.447 16.2853 142.85 16.456C142.274 16.6267 141.783 16.8293 141.378 17.064C140.973 17.2987 140.653 17.5013 140.418 17.672ZM152.816 14.28H160.176V16.68H152.816V14.28ZM155.216 9.16H157.776V29H155.216V9.16ZM163.896 21.64C163.896 22.664 164.109 23.5707 164.536 24.36C164.984 25.1493 165.581 25.7787 166.328 26.248C167.096 26.696 167.96 26.92 168.92 26.92C169.709 26.92 170.445 26.8027 171.128 26.568C171.832 26.312 172.44 25.9813 172.952 25.576C173.464 25.1493 173.826 24.7013 174.04 24.232V27.432C173.528 28.0293 172.792 28.4987 171.832 28.84C170.893 29.16 169.922 29.32 168.92 29.32C167.49 29.32 166.2 28.9893 165.048 28.328C163.896 27.6667 162.978 26.76 162.296 25.608C161.634 24.4347 161.304 23.112 161.304 21.64C161.304 20.1467 161.634 18.824 162.296 17.672C162.978 16.52 163.896 15.6133 165.048 14.952C166.2 14.2907 167.49 13.96 168.92 13.96C169.922 13.96 170.893 14.1307 171.832 14.472C172.792 14.792 173.528 15.2507 174.04 15.848V19.048C173.826 18.5573 173.464 18.1093 172.952 17.704C172.44 17.2987 171.832 16.9787 171.128 16.744C170.445 16.488 169.709 16.36 168.92 16.36C167.96 16.36 167.096 16.584 166.328 17.032C165.581 17.48 164.984 18.1093 164.536 18.92C164.109 19.7093 163.896 20.616 163.896 21.64ZM180.585 4.04V29H178.025V4.04H180.585ZM187.465 20.04C187.465 18.824 187.198 17.9067 186.665 17.288C186.153 16.6693 185.374 16.36 184.329 16.36C183.582 16.36 182.921 16.52 182.345 16.84C181.79 17.16 181.353 17.5973 181.033 18.152C180.734 18.7067 180.585 19.336 180.585 20.04H179.753C179.753 18.8667 179.977 17.832 180.425 16.936C180.873 16.0187 181.481 15.2933 182.249 14.76C183.038 14.2267 183.945 13.96 184.969 13.96C185.993 13.96 186.878 14.1733 187.625 14.6C188.393 15.0267 188.98 15.6667 189.385 16.52C189.812 17.3733 190.025 18.44 190.025 19.72V29H187.465V20.04Z" fill="white"/>
</svg>
